<svg xmlns="http://www.w3.org/2000/svg" xmlns:xlink="http://www.w3.org/1999/xlink" viewBox="0 0 786.72 319.23"><defs><style>.cls-1{fill:url(#linear-gradient);}.cls-2{fill:none;stroke:#fff;stroke-miterlimit:10;stroke-width:36px;}.cls-3{fill:#fff;}</style><linearGradient id="linear-gradient" x1="16" y1="430.5" x2="802.72" y2="430.5" gradientUnits="userSpaceOnUse"><stop offset="0" stop-color="#009ee9"/><stop offset="1" stop-color="#0069aa"/></linearGradient></defs><title>EM_logo_Blue</title><g id="Layer_1" data-name="Layer 1"><path class="cls-1" d="M793.2,586H131.83a9.35,9.35,0,0,1-9.52-9.1L16,284.1a9.35,9.35,0,0,1,9.52-9.1H686.89a9.35,9.35,0,0,1,9.52,9.1L802.72,576.9A9.35,9.35,0,0,1,793.2,586Z" transform="translate(-16 -270.49)"/></g><g id="Layer_2" data-name="Layer 2"><path class="cls-2" d="M379,430.1a141.62,141.62,0,1,1-44-102.58L237.4,430.1" transform="translate(-16 -270.49)"/></g><g id="Layer_4" data-name="Layer 4"><path class="cls-3" d="M430,586.39c0-1.84-4-184.76-4-233.39,0-34.52,30.19-69.16,67.29-77.23a72.86,72.86,0,0,1,52.43,8c13.36,7.64,24.89,19.41,34.41,35.12C570,332,555.63,349.48,555.63,349.48c-13.5-29.58-32.92-43.26-54.68-38.53C480.56,315.38,462,335.42,462,353c0,48.25,4,230.77,4,232.61Z" transform="translate(-16 -270.49)"/><path class="cls-3" d="M708,586H672V344c0-20.78-2.46-29.93-4-33.61-3.83,1.79-12.64,7.44-28.73,25.15-15.57,17.13-32.42,39.22-48.73,60.59-7.88,10.33-29.33,37.09-36.46,46.07L525.9,419.81c6.91-8.71,28.26-35.33,36-45.52,52.49-68.79,86.64-109.79,118.3-99.09C704.84,283.52,708,316.34,708,344Z" transform="translate(-16 -270.49)"/></g></svg>